<?xml version="1.0" encoding="utf-8"?>
<!-- Generator: Adobe Illustrator 16.0.4, SVG Export Plug-In . SVG Version: 6.00 Build 0)  -->
<!DOCTYPE svg PUBLIC "-//W3C//DTD SVG 1.1//EN" "http://www.w3.org/Graphics/SVG/1.1/DTD/svg11.dtd">
<svg version="1.1" id="Layer_1" xmlns="http://www.w3.org/2000/svg" xmlns:xlink="http://www.w3.org/1999/xlink" x="0px" y="0px"
	 width="600px" height="600px" viewBox="0 0 600 600" enable-background="new 0 0 600 600" xml:space="preserve">
<circle fill="#FFFFFF" cx="300" cy="300" r="300"/>
<g id="main_layer_1_">
	<g>
		<path fill="#003232" d="M433.183,444.179l-93.268-291.771c-1.031-3.221-1.999-5.956-3.495-7.78
			c-2.562-3.119-6.108-4.756-10.879-4.756c-4.768,0-8.312,1.637-10.875,4.756c-1.491,1.821-2.464,4.556-3.492,7.78l-93.265,291.771
			h-83.482l101.878-318.724c5.307-16.604,12.896-30.703,22.524-40.094c16.522-16.109,35.992-24.541,66.718-24.541
			c30.724,0,50.198,8.432,66.716,24.538c9.626,9.396,17.214,23.489,22.521,40.093l101.875,318.725h-83.477V444.179z"/>
	</g>
</g>
<g id="main_layer">
	<g>
		<path fill="#004537" d="M415.782,477.179L315.46,163.336c-1.109-3.465-2.15-6.406-3.76-8.368
			c-2.756-3.355-6.57-5.116-11.702-5.116c-5.128,0-8.942,1.761-11.698,5.116c-1.604,1.959-2.65,4.901-3.756,8.368L184.224,477.179
			H94.426l109.585-342.835c5.709-17.86,13.871-33.025,24.228-43.126c17.772-17.328,38.714-26.397,71.765-26.397
			c33.049,0,53.996,9.069,71.764,26.394c10.354,10.107,18.516,25.267,24.225,43.126l109.582,342.835h-89.792V477.179z"/>
	</g>
</g>
<polyline fill="#003232" points="217.909,444.179 184.224,477.179 194.772,444.179 "/>
<polyline fill="#003232" points="505.574,477.176 516.659,444.176 495.027,444.179 "/>
</svg>
