<?xml version="1.0" encoding="utf-8"?>
<!-- Generator: Adobe Illustrator 16.0.4, SVG Export Plug-In . SVG Version: 6.00 Build 0)  -->
<!DOCTYPE svg PUBLIC "-//W3C//DTD SVG 1.1//EN" "http://www.w3.org/Graphics/SVG/1.1/DTD/svg11.dtd">
<svg version="1.1" id="Layer_1" xmlns="http://www.w3.org/2000/svg" xmlns:xlink="http://www.w3.org/1999/xlink" x="0px" y="0px"
	 width="960px" height="560px" viewBox="0 0 960 560" enable-background="new 0 0 960 560" xml:space="preserve">
<g opacity="0.05">
	
		<rect x="124.857" y="164.982" transform="matrix(0.9269 -0.3754 0.3754 0.9269 -68.113 87.2304)" fill="#61DAFB" width="129.946" height="106.906"/>
	<circle fill="#61DAFB" cx="250.111" cy="193.781" r="53.448"/>
	<circle fill="#61DAFB" cx="129.359" cy="242.839" r="53.524"/>
</g>
<g opacity="0.05">
	
		<rect x="277.316" y="232.983" transform="matrix(0.9269 -0.3754 0.3754 0.9269 -80.0635 161.8843)" fill="#161616" width="196.301" height="106.907"/>
	<circle fill="#161616" cx="466.499" cy="249.328" r="53.449"/>
	<circle fill="#161616" cx="284.243" cy="323.294" r="53.524"/>
</g>
<g opacity="0.05">
	
		<rect x="368.444" y="52.895" transform="matrix(0.9269 -0.3754 0.3754 0.9269 -5.8 182.9234)" fill="#DE0032" width="196.303" height="106.907"/>
	<circle fill="#DE0032" cx="557.627" cy="69.24" r="53.448"/>
	<circle fill="#DE0032" cx="375.372" cy="143.207" r="53.524"/>
</g>
<g opacity="0.05">
	
		<rect x="592.384" y="118.821" transform="matrix(0.9269 -0.3754 0.3754 0.9269 -16.597 259.3507)" fill="#623CE4" width="129.947" height="106.906"/>
	<circle fill="#623CE4" cx="717.637" cy="147.619" r="53.449"/>
	<circle fill="#623CE4" cx="596.886" cy="196.678" r="53.524"/>
</g>
<g opacity="0.05">
	
		<rect x="444.368" y="322.941" transform="matrix(0.9269 -0.3754 0.3754 0.9269 -104.043 218.7216)" fill="#E10098" width="129.947" height="106.907"/>
	<circle fill="#E10098" cx="569.622" cy="351.74" r="53.448"/>
	<circle fill="#E10098" cx="448.87" cy="400.799" r="53.524"/>
</g>
<g opacity="0.05">
	
		<rect x="689.664" y="210.162" transform="matrix(0.9269 -0.3754 0.3754 0.9269 -41.3441 315.0056)" fill="#13AA52" width="196.302" height="106.907"/>
	<circle fill="#13AA52" cx="878.847" cy="226.507" r="53.448"/>
	<circle fill="#13AA52" cx="696.593" cy="300.475" r="53.524"/>
</g>
<g opacity="0.05">
	
		<rect x="201.772" y="421.19" transform="matrix(0.9269 -0.3754 0.3754 0.9269 -158.6645 134.8406)" fill="#026E00" width="129.947" height="106.906"/>
	<circle fill="#026E00" cx="327.026" cy="449.989" r="53.448"/>
	<circle fill="#026E00" cx="206.274" cy="499.048" r="53.525"/>
</g>
</svg>
